<svg width="33" height="32" viewBox="0 0 33 32" fill="none" xmlns="http://www.w3.org/2000/svg">
<path fill-rule="evenodd" clip-rule="evenodd" d="M17.8926 28.9506H2.58872C2.50801 28.9506 2.43035 28.9186 2.37401 28.8623C2.31614 28.8044 2.28416 28.7267 2.28416 28.646V26.438C2.28416 25.1741 3.18717 24.0594 4.57899 23.1107C7.06416 21.4159 11.0858 20.3469 15.6085 20.3469C16.2389 20.3469 16.7505 19.8353 16.7505 19.2048C16.7505 18.5744 16.2389 18.0627 15.6085 18.0627C10.5498 18.0627 6.07131 19.3282 3.29072 21.224C1.16949 22.6707 0 24.5087 0 26.438V28.646C0 29.3328 0.272577 29.9922 0.758342 30.4764C1.24411 30.9622 1.90195 31.2348 2.58872 31.2348H17.8926C18.523 31.2348 19.0347 30.7231 19.0347 30.0927C19.0347 29.4622 18.523 28.9506 17.8926 28.9506Z" fill="white"/>
<path fill-rule="evenodd" clip-rule="evenodd" d="M15.6096 0C10.9865 0 7.23438 3.75212 7.23438 8.37527C7.23438 12.9969 10.9865 16.7505 15.6096 16.7505C20.2328 16.7505 23.9849 12.9969 23.9849 8.37527C23.9849 3.75212 20.2328 0 15.6096 0ZM15.6096 2.28416C18.9719 2.28416 21.7007 5.01298 21.7007 8.37527C21.7007 11.736 18.9719 14.4664 15.6096 14.4664C12.2474 14.4664 9.51854 11.736 9.51854 8.37527C9.51854 5.01298 12.2474 2.28416 15.6096 2.28416Z" fill="white"/>
<path fill-rule="evenodd" clip-rule="evenodd" d="M23.9365 31.6648C24.1497 31.878 24.4405 31.9983 24.7435 31.9983C25.0466 31.9983 25.3374 31.878 25.5506 31.6648L31.229 25.9864C33.2406 23.9748 33.2406 20.7069 31.229 18.6938C29.4672 16.9335 26.7445 16.7127 24.7435 18.0344C22.7426 16.7127 20.0199 16.9335 18.258 18.6938C16.2541 20.6993 16.2465 23.9489 18.2352 25.9635L23.9365 31.6648ZM24.7435 29.2421L19.8585 24.357C18.7529 23.2347 18.7575 21.4256 19.8737 20.3094C20.9945 19.1887 22.8157 19.1887 23.9365 20.3094C24.3826 20.7556 25.1044 20.7556 25.5506 20.3094C26.6729 19.1887 28.4926 19.1887 29.6134 20.3094C30.7341 21.4302 30.7341 23.2499 29.6134 24.3722L24.7435 29.2421Z" fill="white"/>
</svg>
