<svg width="40" height="33" viewBox="0 0 40 33" fill="none" xmlns="http://www.w3.org/2000/svg">
<path d="M40 19.9908C40 24.3787 38.6035 28.5437 35.9616 32.0364C35.4404 32.7258 34.4601 32.8595 33.7729 32.3398C33.0847 31.8192 32.9489 30.8392 33.4692 30.1511C35.6973 27.2058 36.875 23.6923 36.875 19.9908C36.875 10.6641 29.3216 3.125 20 3.125C10.672 3.125 3.125 10.6699 3.125 19.9908C3.125 23.6923 4.30267 27.2058 6.53046 30.1511C7.05109 30.8392 6.91528 31.8192 6.22711 32.3398C5.53864 32.8604 4.55902 32.7246 4.03809 32.0364C1.39648 28.5437 0 24.3787 0 19.9908C0 8.93616 8.95142 0 20 0C31.0547 0 40 8.94226 40 19.9908ZM29.9002 10.5807C30.5103 11.1908 30.5103 12.1802 29.9002 12.7902L24.8071 17.8833C25.2264 18.6563 25.4651 19.5413 25.4651 20.4807C25.4651 23.4943 23.0133 25.9457 20 25.9457C16.9864 25.9457 14.5349 23.4943 14.5349 20.4807C14.5349 17.4673 16.9864 15.0156 20 15.0156C20.9396 15.0156 21.8243 15.2542 22.5974 15.6735L27.6904 10.5804C28.3008 9.9704 29.2899 9.9704 29.9002 10.5807ZM22.3401 20.481C22.3401 19.1907 21.2903 18.1409 20 18.1409C18.7097 18.1409 17.6599 19.1907 17.6599 20.481C17.6599 21.7712 18.7097 22.821 20 22.821C21.2903 22.821 22.3401 21.7712 22.3401 20.481Z" fill="white"/>
</svg>
