<svg width="35" height="33" viewBox="0 0 35 33" fill="none" xmlns="http://www.w3.org/2000/svg">
<path d="M29.5208 1.6875C29.5208 1.5625 29.5208 1.4375 29.5208 1.3125C29.5208 0.6875 28.9583 0.0624999 28.2708 0.0624999C27.5833 0.0624999 27.0208 0.625 27.0208 1.3125V1.6875H11.5833V1.625C11.5833 1.5 11.5833 1.375 11.5833 1.25C11.5833 0.625 11.0208 0 10.3333 0C9.64583 0 9.08333 0.5625 9.08333 1.25V1.75C6.20833 1.75 3.83333 4.125 3.83333 7V11.8125C3.77083 12 3.70833 12.125 3.70833 12.3125C3.33333 15 2.70833 17.6875 1.83333 20.25C1.39583 21.4375 0.895833 22.6875 0.333333 23.8125C-0.166667 24.875 -0.104167 26.0625 0.520833 27C1.14583 27.9375 2.14583 28.5 3.27083 28.5H3.95833C4.52083 30.8125 6.58333 32.5 9.08333 32.5H29.3333C32.2083 32.5 34.5833 30.125 34.5833 27.25V6.9375C34.5833 4.0625 32.3333 1.8125 29.5208 1.6875ZM9.02083 4.1875V4.4375C9.02083 5.0625 9.58333 5.6875 10.2708 5.6875C10.9583 5.6875 11.5208 5.125 11.5208 4.4375C11.5208 4.375 11.5208 4.25 11.5208 4.1875H27.0208V4.5625C27.0208 5.1875 27.5833 5.8125 28.2708 5.8125C28.9583 5.8125 29.5208 5.25 29.5208 4.5625C29.5208 4.4375 29.5208 4.3125 29.5208 4.1875C30.9583 4.3125 32.0833 5.5 32.0833 6.9375V9.9375C32.0208 9.9375 31.8958 9.9375 31.8333 9.9375H6.27083V6.9375C6.27083 5.375 7.52083 4.1875 9.02083 4.1875ZM2.58333 25.625C2.45833 25.375 2.39583 25.125 2.52083 24.875C3.08333 23.625 3.64583 22.375 4.08333 21.0625C5.02083 18.3125 5.70833 15.5 6.08333 12.625C6.08333 12.5625 6.14583 12.5 6.20833 12.5H31.7708C31.7708 12.5 31.8333 12.5 31.8958 12.5625C31.8958 12.5625 31.9583 12.625 31.9583 12.6875C31.6458 15.5 31.0208 18.25 30.1458 20.875C29.7083 22.1875 29.1458 23.5 28.5208 24.8125C28.1458 25.5625 27.3333 26.0625 26.4583 26.0625H3.27083C2.95833 25.9375 2.70833 25.8125 2.58333 25.625ZM29.3333 29.9375H9.02083C7.95833 29.9375 7.08333 29.3125 6.58333 28.4375H26.3958C28.2083 28.4375 29.8958 27.375 30.7083 25.75C31.2083 24.75 31.6458 23.6875 32.0208 22.625V27.1875C32.0833 28.6875 30.8333 29.9375 29.3333 29.9375Z" fill="white"/>
</svg>
